<svg xmlns="http://www.w3.org/2000/svg" viewBox="0 0 64 64" width="64" height="64">
  <!-- Ocean background -->
  <circle cx="32" cy="32" r="30" fill="#1e3a5f"/>

  <!-- Latitude lines -->
  <g stroke="#2d5a8e" stroke-width="0.7" fill="none" opacity="0.7">
    <ellipse cx="32" cy="32" rx="30" ry="4.5"/>
    <ellipse cx="32" cy="25" rx="27.5" ry="4"/>
    <ellipse cx="32" cy="18" rx="21" ry="3"/>
    <ellipse cx="32" cy="13" rx="13" ry="2"/>
  </g>

  <!-- Longitude lines -->
  <g stroke="#2d5a8e" stroke-width="0.7" fill="none" opacity="0.7">
    <line x1="32" y1="2" x2="32" y2="62"/>
    <path d="M 32 2 Q 40 32 32 62"/>
    <path d="M 32 2 Q 24 32 32 62"/>
    <path d="M 32 2 Q 50 32 32 62"/>
    <path d="M 32 2 Q 14 32 32 62"/>
  </g>

  <!-- Europe landmass (simplified) -->
  <path d="
    M 28 15
    L 30 13
    L 33 13
    L 35 15
    L 37 14
    L 39 16
    L 38 18
    L 40 20
    L 39 22
    L 41 23
    L 40 25
    L 38 24
    L 36 26
    L 34 27
    L 33 29
    L 31 28
    L 29 30
    L 27 29
    L 25 27
    L 24 25
    L 25 23
    L 23 21
    L 24 19
    L 26 18
    L 27 16
    Z
  " fill="#3a9b5c" opacity="0.9"/>

  <!-- Iberian peninsula -->
  <path d="M 24 25 L 22 26 L 21 28 L 23 30 L 25 29 L 25 27 Z" fill="#3a9b5c" opacity="0.9"/>

  <!-- Scandinavia -->
  <path d="M 33 13 L 34 10 L 36 9 L 37 11 L 36 13 L 35 15 Z" fill="#3a9b5c" opacity="0.9"/>

  <!-- Globe border -->
  <circle cx="32" cy="32" r="30" fill="none" stroke="#4a90d9" stroke-width="1.5"/>
</svg>
